# xmcd CD database file
#
# Track frame offsets:
#	150
#	30318
#	68238
#	87038
#	119707
#	332550
#
# Disc length: 4440 seconds
#
# Revision: 0
# Processed by: cddbd v1.5PL3 Copyright (c) Steve Scherf et al.
# Submitted via: CDex 1.50
#
DISCID=48115606
DTITLE=オナニーマシーン＆シーモネーター - 家出／恋のABC＜あだるちーVERSION＞
DYEAR=2003
DGENRE=Punk
TTITLE0=家出
TTITLE1=恋のABC＜あだるちーVERSION＞
TTITLE2=家出＜反復横跳びRemix＞
TTITLE3=恋のABC＜猛烈太チンRemix＞
TTITLE4=データ５
TTITLE5=データ６
EXTD=YEAR: 2003
EXTT0=
EXTT1=
EXTT2=
EXTT3=
EXTT4=
EXTT5=
PLAYORDER=
